<svg width="800" height="800" viewBox="0 0 800 800" fill="none" xmlns="http://www.w3.org/2000/svg">
<rect width="800" height="800" fill="white"/>
<path d="M194.22 272.378C193.652 266.649 191.214 262.198 186.905 259.026C182.596 255.853 176.749 254.267 169.362 254.267C164.343 254.267 160.106 254.977 156.649 256.398C153.193 257.771 150.541 259.688 148.695 262.151C146.895 264.613 145.996 267.406 145.996 270.531C145.901 273.135 146.446 275.408 147.629 277.349C148.86 279.291 150.541 280.972 152.672 282.392C154.803 283.765 157.265 284.973 160.058 286.014C162.852 287.009 165.835 287.861 169.007 288.571L182.075 291.696C188.42 293.116 194.244 295.01 199.547 297.378C204.85 299.745 209.443 302.657 213.325 306.114C217.208 309.57 220.214 313.642 222.345 318.33C224.523 323.017 225.636 328.391 225.683 334.452C225.636 343.353 223.363 351.071 218.865 357.605C214.414 364.092 207.975 369.134 199.547 372.733C191.166 376.284 181.057 378.06 169.22 378.06C157.478 378.06 147.25 376.26 138.538 372.662C129.874 369.063 123.103 363.737 118.226 356.682C113.396 349.58 110.863 340.796 110.626 330.332H140.385C140.716 335.209 142.113 339.281 144.575 342.548C147.085 345.768 150.423 348.206 154.589 349.864C158.804 351.473 163.562 352.278 168.865 352.278C174.073 352.278 178.595 351.521 182.43 350.006C186.313 348.491 189.32 346.384 191.45 343.685C193.581 340.986 194.646 337.884 194.646 334.381C194.646 331.114 193.676 328.367 191.734 326.142C189.84 323.917 187.047 322.023 183.354 320.46C179.708 318.898 175.233 317.477 169.93 316.199L154.092 312.222C141.829 309.239 132.146 304.575 125.044 298.23C117.942 291.885 114.414 283.339 114.462 272.591C114.414 263.784 116.758 256.09 121.493 249.509C126.275 242.927 132.833 237.79 141.166 234.097C149.5 230.403 158.969 228.557 169.575 228.557C180.371 228.557 189.793 230.403 197.842 234.097C205.939 237.79 212.236 242.927 216.734 249.509C221.232 256.09 223.553 263.713 223.695 272.378H194.22ZM252.829 255.901V230.545H372.289V255.901H327.758V376H297.36V255.901H252.829ZM434.715 230.545V376H403.962V230.545H434.715ZM472.017 376V230.545H502.77V350.645H565.128V376H472.017ZM597.494 376V230.545H628.246V350.645H690.604V376H597.494ZM204.317 470.562C203.323 467.106 201.926 464.052 200.127 461.401C198.328 458.702 196.126 456.429 193.522 454.582C190.965 452.688 188.03 451.244 184.715 450.25C181.448 449.256 177.826 448.759 173.849 448.759C166.415 448.759 159.881 450.605 154.246 454.298C148.659 457.991 144.303 463.366 141.178 470.42C138.053 477.428 136.491 485.998 136.491 496.131C136.491 506.263 138.03 514.881 141.107 521.983C144.185 529.085 148.541 534.507 154.175 538.247C159.81 541.94 166.462 543.787 174.133 543.787C181.093 543.787 187.035 542.556 191.96 540.094C196.931 537.584 200.719 534.057 203.323 529.511C205.975 524.966 207.3 519.592 207.3 513.389L213.55 514.312H176.05V491.159H236.917V509.483C236.917 522.267 234.218 533.252 228.82 542.438C223.423 551.576 215.989 558.631 206.519 563.602C197.049 568.527 186.207 570.989 173.991 570.989C160.354 570.989 148.375 567.982 138.053 561.969C127.731 555.908 119.682 547.314 113.906 536.188C108.176 525.013 105.312 511.756 105.312 496.415C105.312 484.625 107.016 474.114 110.425 464.881C113.882 455.6 118.711 447.741 124.914 441.301C131.117 434.862 138.337 429.961 146.576 426.599C154.815 423.238 163.74 421.557 173.352 421.557C181.59 421.557 189.261 422.764 196.363 425.179C203.465 427.546 209.763 430.908 215.255 435.264C220.795 439.62 225.317 444.805 228.82 450.818C232.324 456.784 234.573 463.366 235.567 470.562H204.317ZM393.682 496.273C393.682 512.134 390.675 525.629 384.662 536.756C378.696 547.883 370.552 556.382 360.23 562.253C349.955 568.077 338.402 570.989 325.571 570.989C312.645 570.989 301.045 568.053 290.77 562.182C280.495 556.311 272.375 547.812 266.409 536.685C260.443 525.558 257.46 512.087 257.46 496.273C257.46 480.411 260.443 466.917 266.409 455.79C272.375 444.663 280.495 436.187 290.77 430.364C301.045 424.492 312.645 421.557 325.571 421.557C338.402 421.557 349.955 424.492 360.23 430.364C370.552 436.187 378.696 444.663 384.662 455.79C390.675 466.917 393.682 480.411 393.682 496.273ZM362.503 496.273C362.503 485.998 360.964 477.333 357.886 470.278C354.856 463.223 350.571 457.873 345.031 454.227C339.491 450.581 333.005 448.759 325.571 448.759C318.137 448.759 311.651 450.581 306.111 454.227C300.571 457.873 296.262 463.223 293.185 470.278C290.154 477.333 288.639 485.998 288.639 496.273C288.639 506.547 290.154 515.212 293.185 522.267C296.262 529.322 300.571 534.672 306.111 538.318C311.651 541.964 318.137 543.787 325.571 543.787C333.005 543.787 339.491 541.964 345.031 538.318C350.571 534.672 354.856 529.322 357.886 522.267C360.964 515.212 362.503 506.547 362.503 496.273ZM550.127 496.273C550.127 512.134 547.121 525.629 541.107 536.756C535.141 547.883 526.997 556.382 516.675 562.253C506.401 568.077 494.848 570.989 482.016 570.989C469.09 570.989 457.49 568.053 447.215 562.182C436.941 556.311 428.82 547.812 422.854 536.685C416.888 525.558 413.906 512.087 413.906 496.273C413.906 480.411 416.888 466.917 422.854 455.79C428.82 444.663 436.941 436.187 447.215 430.364C457.49 424.492 469.09 421.557 482.016 421.557C494.848 421.557 506.401 424.492 516.675 430.364C526.997 436.187 535.141 444.663 541.107 455.79C547.121 466.917 550.127 480.411 550.127 496.273ZM518.948 496.273C518.948 485.998 517.409 477.333 514.332 470.278C511.301 463.223 507.016 457.873 501.477 454.227C495.937 450.581 489.45 448.759 482.016 448.759C474.583 448.759 468.096 450.581 462.556 454.227C457.016 457.873 452.708 463.223 449.63 470.278C446.6 477.333 445.085 485.998 445.085 496.273C445.085 506.547 446.6 515.212 449.63 522.267C452.708 529.322 457.016 534.672 462.556 538.318C468.096 541.964 474.583 543.787 482.016 543.787C489.45 543.787 495.937 541.964 501.477 538.318C507.016 534.672 511.301 529.322 514.332 522.267C517.409 515.212 518.948 506.547 518.948 496.273ZM624.47 569H572.908V423.545H624.896C639.527 423.545 652.122 426.457 662.68 432.281C673.239 438.058 681.359 446.367 687.041 457.21C692.77 468.053 695.635 481.027 695.635 496.131C695.635 511.282 692.77 524.303 687.041 535.193C681.359 546.083 673.192 554.44 662.538 560.264C651.932 566.088 639.243 569 624.47 569ZM603.661 542.651H623.192C632.283 542.651 639.929 541.041 646.132 537.821C652.382 534.554 657.07 529.511 660.195 522.693C663.367 515.828 664.953 506.973 664.953 496.131C664.953 485.383 663.367 476.599 660.195 469.781C657.07 462.963 652.406 457.944 646.203 454.724C640 451.505 632.354 449.895 623.263 449.895H603.661V542.651Z" fill="black"/>
</svg>
